Coordinates
version=1
nRows=9
nColumns=63
inDegrees=yes

Units are S.I. units (second, meters, Newtons, ...)
If the header above contains a line with 'inDegrees', this indicates whether rotational values are in degrees (yes) or radians (no).

endheader
time	pelvis_tilt	pelvis_list	pelvis_rotation	pelvis_tx	pelvis_ty	pelvis_tz	hip_flexion_r	hip_adduction_r	hip_rotation_r	knee_angle_r	knee_angle_r_beta	ankle_angle_r	subtalar_angle_r	mtp_angle_r	hip_flexion_l	hip_adduction_l	hip_rotation_l	knee_angle_l	knee_angle_l_beta	ankle_angle_l	subtalar_angle_l	mtp_angle_l	L5_S1_Flex_Ext	L5_S1_Lat_Bending	L5_S1_axial_rotation	L4_L5_Flex_Ext	L4_L5_Lat_Bending	L4_L5_axial_rotation	L3_L4_Flex_Ext	L3_L4_Lat_Bending	L3_L4_axial_rotation	L2_L3_Flex_Ext	L2_L3_Lat_Bending	L2_L3_axial_rotation	L1_L2_Flex_Ext	L1_L2_Lat_Bending	L1_L2_axial_rotation	L1_T12_Flex_Ext	L1_T12_Lat_Bending	L1_T12_axial_rotation	Abs_r3	Abs_r2	Abs_r1	Abs_t1	Abs_t2	neck_flexion	neck_bending	neck_rotation	arm_flex_r	arm_add_r	arm_rot_r	elbow_flex_r	pro_sup_r	wrist_flex_r	wrist_dev_r	arm_flex_l	arm_add_l	arm_rot_l	elbow_flex_l	pro_sup_l	wrist_flex_l	wrist_dev_l
     11.24200000	    -62.78635011	     -4.68447852	      3.64416784	     -0.29782174	      1.13456281	      0.02573597	     93.32549966	     -8.76906612	    -10.96951343	     37.60352790	      0.65630537	     -1.91438078	     -0.05730053	      0.00000000	    118.55933940	      2.65133253	      5.17508055	    105.33326620	      1.83841231	      9.38896255	     -5.75632210	      0.00000000	     -0.09871300	      0.81938664	     -0.38703922	     -0.18331992	      1.08978423	     -0.41122917	     -0.16217559	      1.99225668	     -0.41122917	     -0.11281909	      1.99225668	     -0.33865932	     -0.09166489	      1.67089324	     -0.31446936	     -0.05640461	      1.26922991	     -0.29027941	     -0.70509710	      9.26906556	     -2.15259602	      0.00000000	      0.00000000	      0.00000000	      0.00000000	      0.00000000	     61.02444464	    -10.65924989	     -3.50474449	     45.68171399	     58.83710506	      0.00000000	      5.00000014	     62.07624553	     -1.94853014	      0.82876680	     43.13427390	     59.53666627	      0.00000000	      5.00000014
     11.25000000	    -62.75467096	     -4.48243745	      4.19867719	     -0.29763160	      1.13441721	      0.02534811	     92.26578563	     -9.12741332	    -10.90468578	     36.44660760	      0.63611330	     -3.19547022	      0.15996305	      0.00000000	    119.49337778	      3.18437750	      4.55685769	    106.16035735	      1.85284777	     10.91622185	     -5.71190980	      0.00000000	     -0.09801377	      0.77211176	     -0.48341264	     -0.18202137	      1.02690865	     -0.51362593	     -0.16102682	      1.87731254	     -0.51362593	     -0.11201993	      1.87731254	     -0.42298606	     -0.09101558	      1.57449031	     -0.39277277	     -0.05600507	      1.19600112	     -0.36255948	     -0.70010254	      8.73428269	     -2.68859608	      0.00000000	      0.00000000	      0.00000000	      0.00000000	      0.00000000	     60.86155280	    -10.70283464	     -3.69391689	     45.63237414	     58.78842229	      0.00000000	      5.00000014	     62.23152291	     -1.82672749	      0.92362463	     42.98559788	     59.52429066	      0.00000000	      5.00000014
     11.25800000	    -62.71159469	     -4.21150206	      4.61649108	     -0.29740205	      1.13414854	      0.02529464	     91.36366887	     -9.34994494	    -10.76423042	     35.66826752	      0.62252871	     -4.66456874	     -0.26540482	      0.00000000	    120.29671938	      3.50748835	      4.09968085	    106.86371749	      1.86512372	     13.59274963	     -4.03631478	      0.00000000	     -0.09832206	      0.71396730	     -0.54703752	     -0.18259389	      0.94957652	     -0.58122736	     -0.16153331	      1.73594010	     -0.58122736	     -0.11237228	      1.73594010	     -0.47865783	     -0.09130186	      1.45592213	     -0.44446798	     -0.05618122	      1.10593536	     -0.41027814	     -0.70230462	      8.07654095	     -3.04245855	      0.00000000	      0.00000000	      0.00000000	      0.00000000	      0.00000000	     60.59653316	    -10.66259421	     -4.26075498	     45.67438359	     58.71409023	      0.00000000	      5.00000014	     62.39185067	     -1.73225189	      1.22183899	     42.79254851	     59.59179938	      0.00000000	      5.00000014
     11.26700000	    -62.71129800	     -3.99249135	      5.12210497	     -0.29730678	      1.13396832	      0.02497183	     90.52702015	     -9.69380342	    -10.58955517	     35.04016693	      0.61156628	     -5.59565273	     -0.28003811	      0.00000000	    121.11705359	      3.91576779	      3.45469287	    107.29826912	      1.87270808	     15.54529821	     -3.50522103	      0.00000000	     -0.09582853	      0.66471394	     -0.62502021	     -0.17796316	      0.88406954	     -0.66408397	     -0.15743669	      1.61618548	     -0.66408397	     -0.10952242	      1.61618548	     -0.54689268	     -0.08898637	      1.35548467	     -0.50782892	     -0.05475642	      1.02964190	     -0.46876516	     -0.68449358	      7.51937707	     -3.47617489	      0.00000000	      0.00000000	      0.00000000	      0.00000000	      0.00000000	     60.37660615	    -10.76222865	     -4.45872761	     45.74031685	     58.68274359	      0.00000000	      5.00000014	     62.55933561	     -1.57106778	      1.34926797	     42.63409566	     59.62902940	      0.00000000	      5.00000014
     11.27500000	    -62.69502215	     -3.75920955	      5.55008279	     -0.29716872	      1.13384887	      0.02476500	     89.72013764	     -9.94040440	    -10.29421093	     34.56356313	      0.60324798	     -6.34007244	     -0.48167555	      0.00000000	    121.84312784	      4.23383301	      2.91845335	    107.53282830	      1.87680191	     17.62704020	     -2.30283675	      0.00000000	     -0.09713615	      0.61483261	     -0.68448943	     -0.18039154	      0.81772737	     -0.72727002	     -0.15958498	      1.49490400	     -0.72727002	     -0.11101691	      1.49490400	     -0.59892825	     -0.09020063	      1.25376665	     -0.55614766	     -0.05550360	      0.95237571	     -0.51336708	     -0.69383380	      6.95510941	     -3.80692488	      0.00000000	      0.00000000	      0.00000000	      0.00000000	      0.00000000	     60.11788606	    -10.80952953	     -4.80794529	     45.86658493	     58.64293558	      0.00000000	      5.00000014	     62.71613074	     -1.44005382	      1.61245573	     42.48083650	     59.73735464	      0.00000000	      5.00000014
     11.28300000	    -62.70486435	     -3.61446983	      5.95317368	     -0.29713742	      1.13377227	      0.02443509	     88.99015640	    -10.24269668	    -10.25668376	     34.30173525	      0.59867822	     -6.85821140	     -0.41417830	      0.00000000	    122.55825617	      4.55515509	      2.25639627	    107.55431509	      1.87717692	     19.19346954	     -2.40718625	      0.00000000	     -0.09506190	      0.57972847	     -0.73401539	     -0.17653946	      0.77103886	     -0.77989135	     -0.15617720	      1.40955179	     -0.77989135	     -0.10864625	      1.40955179	     -0.64226346	     -0.08827448	      1.18218229	     -0.59638750	     -0.05431837	      0.89799940	     -0.55051154	     -0.67901767	      6.55800436	     -4.08237338	      0.00000000	      0.00000000	      0.00000000	      0.00000000	      0.00000000	     59.92292921	    -10.97754218	     -4.88577667	     45.95880775	     58.61820708	      0.00000000	      5.00000014	     62.84518805	     -1.21991408	      1.67710474	     42.33751224	     59.73973751	      0.00000000	      5.00000014
     11.29200000	    -62.71839989	     -3.42924135	      6.30464530	     -0.29718703	      1.13378687	      0.02419640	     88.41209228	    -10.53369807	    -10.18961100	     34.37810335	      0.60001109	     -7.27301357	     -0.42762204	      0.00000000	    123.16167985	      4.79984387	      1.60517332	    107.33267575	      1.87330859	     21.06323696	     -2.20192696	      0.00000000	     -0.09517791	      0.54123803	     -0.77248587	     -0.17675490	      0.71984657	     -0.82076624	     -0.15636779	      1.31596613	     -0.82076624	     -0.10877884	      1.31596613	     -0.67592514	     -0.08838221	      1.10369258	     -0.62764477	     -0.05438466	      0.83837770	     -0.57936441	     -0.67984631	      6.12259279	     -4.29633468	      0.00000000	      0.00000000	      0.00000000	      0.00000000	      0.00000000	     59.72137567	    -11.11088817	     -5.02692233	     46.06437982	     58.58831022	      0.00000000	      5.00000014	     63.00583924	     -1.02351992	      1.78718726	     42.16435730	     59.75339748	      0.00000000	      5.00000014
     11.30000000	    -62.74962531	     -3.09182050	      6.55401150	     -0.29722095	      1.13377916	      0.02442441	     88.00567564	    -10.70156327	     -9.75059020	     34.75566267	      0.60660075	     -7.48325176	     -0.64126837	      0.00000000	    123.66487084	      4.78847717	      1.06164147	    106.94866979	      1.86660642	     23.41467903	     -0.17856705	      0.00000000	     -0.09252727	      0.48282538	     -0.79543293	     -0.17183239	      0.64215776	     -0.84514748	     -0.15201305	      1.17394163	     -0.84514748	     -0.10574942	      1.17394163	     -0.69600381	     -0.08592082	      0.98457752	     -0.64628925	     -0.05287008	      0.74789652	     -0.59657469	     -0.66091304	      5.46181729	     -4.42395930	      0.00000000	      0.00000000	      0.00000000	      0.00000000	      0.00000000	     59.45245816	    -11.02614804	     -5.54717317	     46.15932193	     58.53068203	      0.00000000	      5.00000014	     63.17390589	     -1.02210337	      2.25750395	     41.97780984	     59.88848177	      0.00000000	      5.00000014
     11.30800000	    -62.77901251	     -2.99834987	      6.68418593	     -0.29745943	      1.13393143	      0.02444548	     87.61333273	    -10.80402279	     -9.70375760	     35.24434792	      0.61512991	     -7.65637195	     -0.62999891	      0.00000000	    124.18165548	      4.84521160	      0.55595379	    106.37247677	      1.85654995	     24.73825044	     -0.19801877	      0.00000000	     -0.09292967	      0.46317704	     -0.79774452	     -0.17257970	      0.61602546	     -0.84760356	     -0.15267416	      1.12616865	     -0.84760356	     -0.10620932	      1.12616865	     -0.69802646	     -0.08629449	      0.94451061	     -0.64816743	     -0.05310002	      0.71746123	     -0.59830839	     -0.66378736	      5.23955127	     -4.43681571	      0.00000000	      0.00000000	      0.00000000	      0.00000000	      0.00000000	     59.41548065	    -11.12306097	     -5.60188749	     46.13224376	     58.52926388	      0.00000000	      5.00000014	     63.30697034	     -0.88504138	      2.31723563	     41.84977963	     59.91628168	      0.00000000	      5.00000014
